<svg xmlns="http://www.w3.org/2000/svg" viewBox="0 0 512 512">
  <rect width="512" height="512" fill="#060912"/>
  <path d="M0 0h512v512H0z" fill="url(#bg)"/>
  <rect x="122" y="118" width="268" height="276" rx="42" fill="#10182d" stroke="#253357" stroke-width="10"/>
  <path d="M162 190h188M162 244h188M162 298h104" stroke="#94a3b8" stroke-width="23" stroke-linecap="round"/>
  <path d="M322 292c-25 0-46 21-46 46s21 46 46 46 46-21 46-46-21-46-46-46Zm-15 46 10 11 25-28" fill="none" stroke="#10b981" stroke-width="18" stroke-linecap="round" stroke-linejoin="round"/>
  <path d="M150 122c26-42 67-66 112-66 65 0 119 44 134 104" fill="none" stroke="#06b6d4" stroke-width="18" stroke-linecap="round"/>
  <circle cx="384" cy="160" r="18" fill="#06b6d4"/>
  <defs>
    <radialGradient id="bg" cx="0" cy="0" r="1" gradientTransform="matrix(512 512 -512 512 52 38)" gradientUnits="userSpaceOnUse">
      <stop stop-color="#6366f1" stop-opacity=".34"/>
      <stop offset=".48" stop-color="#06b6d4" stop-opacity=".16"/>
      <stop offset="1" stop-color="#060912" stop-opacity="0"/>
    </radialGradient>
  </defs>
</svg>
